<svg width="10" height="10" viewBox="0 0 22 21" fill="none" xmlns="http://www.w3.org/2000/svg">
<path d="M10.13 0.535384C10.513 -0.140613 11.487 -0.140612 11.87 0.535384L13.782 3.90952C13.9877 4.27247 14.397 4.46961 14.809 4.40411L18.6391 3.7952C19.4065 3.67321 20.0137 4.43467 19.724 5.15563L18.2781 8.7542C18.1226 9.14129 18.2237 9.58427 18.5318 9.86554L21.3958 12.4804C21.9697 13.0043 21.7529 13.9538 21.0086 14.1768L17.2937 15.29C16.894 15.4098 16.6107 15.765 16.5829 16.1812L16.3243 20.0508C16.2725 20.8261 15.395 21.2486 14.7566 20.8058L11.57 18.5954C11.2272 18.3576 10.7728 18.3576 10.43 18.5954L7.24344 20.8058C6.60502 21.2486 5.72752 20.8261 5.67571 20.0508L5.41707 16.1812C5.38925 15.765 5.10596 15.4098 4.70634 15.29L0.991353 14.1768C0.247067 13.9538 0.0303448 13.0043 0.604155 12.4804L3.46824 9.86554C3.77633 9.58427 3.87743 9.14129 3.7219 8.7542L2.27598 5.15563C1.9863 4.43467 2.59354 3.67321 3.36089 3.7952L7.19098 4.40411C7.60298 4.46961 8.01235 4.27247 8.21801 3.90952L10.13 0.535384Z" fill="white"/>
</svg>
